<svg id="Layer_1" data-name="Layer 1" xmlns="http://www.w3.org/2000/svg" viewBox="0 0 180 55"><defs><style>.cls-1{fill:#fff}.cls-2{mask:url(#mask)}.cls-3{mask:url(#mask-2)}.cls-4{fill:url(#linear-gradient)}</style><mask id="mask" x="0" y="12.09" width="27.73" height="32.19" maskUnits="userSpaceOnUse"><g id="b"><path id="a" class="cls-1" d="M0 44.28V12.1h27.73v32.18z"/></g></mask><mask id="mask-2" x="93.64" y="12.02" width="73.05" height="41.34" maskUnits="userSpaceOnUse"><g id="d"><path id="c" class="cls-1" d="M93.64 53.36h73.05V12h-73v41.36z"/></g></mask><linearGradient id="linear-gradient" x1="-204.32" y1="400.98" x2="-203.32" y2="400.98" gradientTransform="matrix(18.4 0 0 -16.57 3900.81 6670.26)" gradientUnits="userSpaceOnUse"><stop offset="0" stop-color="#12bdfd"/><stop offset="1" stop-color="#9f79f3"/></linearGradient></defs><title>soompi-logo-colored</title><path d="M27.73 17.54a5.47 5.47 0 0 0-5.79-5.45C14.52 12.09 10.76 17 9.45 22c-.53 2-2.06 11.41-2.06 11.41H5.73A5.59 5.59 0 0 0 0 38.86a5.65 5.65 0 0 0 5.73 5.42c7.45 0 11.09-4.8 12.59-9.6C19.08 32.25 20.5 23 20.5 23H22a5.61 5.61 0 0 0 5.76-5.46" class="cls-2"/><path d="M42.47 35.1a6.74 6.74 0 0 1-6.57-6.91 6.58 6.58 0 1 1 13.15 0 6.75 6.75 0 0 1-6.58 6.91m0-23a16.09 16.09 0 1 0 16.07 16.09A16.07 16.07 0 0 0 42.47 12.1m33.58 23a6.75 6.75 0 0 1-6.58-6.91 6.58 6.58 0 1 1 13.15 0 6.74 6.74 0 0 1-6.57 6.91m0-23a16.09 16.09 0 1 0 16.06 16.09A16.07 16.07 0 0 0 76.05 12.1"/><path d="M156.49 36l-5.38-2.68-5.37 2.68 1-5.67-2-1.83-.36-.34-2-1.85 6-.82 2.68-5.16 2.69 5.16 6 .82-4.35 4 1 5.67zm-5.37-24a15.84 15.84 0 0 0-15.58 16.09V44h-1V22.81C134.19 16.8 128.71 12 122 12a13.37 13.37 0 0 0-7.9 2.53 13.31 13.31 0 0 0-7.9-2.53c-6.72 0-12.2 4.8-12.54 10.81v16.54a4.63 4.63 0 1 0 9.24 0V25.5a3.3 3.3 0 1 1 6.58 0v13.85a4.63 4.63 0 1 0 9.25 0V25.5a3.3 3.3 0 1 1 6.58 0v18.71a9.65 9.65 0 0 0 9.56 9.14h.36a9.65 9.65 0 0 0 9.56-9.14v-1.39a15.25 15.25 0 0 0 6.34 1.39 15.85 15.85 0 0 0 15.58-16.1A15.85 15.85 0 0 0 151.12 12z" class="cls-3"/><path d="M172.84 12.25a4.56 4.56 0 0 0-4.58 4.09v23.44a4.6 4.6 0 0 0 9.2 0V16.34a4.56 4.56 0 0 0-4.58-4.09"/><path class="cls-4" d="M156.799 36.349l-5.69-2.85-5.68 2.83 1.08-6-2.09-1.93-.38-.36-2.12-1.95 6.35-.88 2.85-5.45 2.84 5.45 6.36.88-4.61 4.24 1.09 6.02z"/><path d="M167.74 5.07a5.07 5.07 0 1 0 10.14 0 5.07 5.07 0 1 0-10.14 0"/></svg>